<svg xmlns="http://www.w3.org/2000/svg" width="9" height="16" viewBox="0 0 9 16">
  <g id="Vector_Smart_Object" data-name="Vector Smart Object" transform="translate(-1382 -18)">
    <g id="Vector_Smart_Object-2" data-name="Vector Smart Object" transform="translate(1378.177 18)">
      <g id="Group_385" data-name="Group 385">
        <path id="Path_915" data-name="Path 915" d="M12.484,0,10.326,0A3.716,3.716,0,0,0,6.333,3.938V5.753H4.163a.333.333,0,0,0-.339.326V8.71a.333.333,0,0,0,.339.326h2.17v6.637A.333.333,0,0,0,6.673,16H9.5a.333.333,0,0,0,.339-.326V9.036h2.538a.333.333,0,0,0,.339-.326V6.08a.32.32,0,0,0-.1-.231.347.347,0,0,0-.24-.1H9.844V4.214c0-.74.183-1.115,1.186-1.115h1.454a.333.333,0,0,0,.339-.326V.33A.333.333,0,0,0,12.484,0Z" fill="#ffad26"/>
      </g>
    </g>
    <path id="Color_Overlay" data-name="Color Overlay" d="M1384.849,34a.333.333,0,0,1-.339-.327V27.036h-2.171a.333.333,0,0,1-.338-.326V24.08a.333.333,0,0,1,.338-.327h2.171V21.938A3.716,3.716,0,0,1,1388.5,18l2.159,0a.333.333,0,0,1,.339.326v2.443a.334.334,0,0,1-.34.327h-1.453c-1,0-1.185.375-1.185,1.115v1.539h2.537a.35.35,0,0,1,.241.1.321.321,0,0,1,.1.23V26.71a.333.333,0,0,1-.34.326h-2.537v6.637a.334.334,0,0,1-.34.327Z" fill="#ffad26"/>
  </g>
</svg>
