<svg xmlns="http://www.w3.org/2000/svg" width="43.285" height="43.285" viewBox="0 0 43.285 43.285">
  <g id="Group_1884" data-name="Group 1884" transform="translate(-1101.021 -1653.821)">
    <path id="Path_914" data-name="Path 914" d="M21.643,0A21.643,21.643,0,1,1,0,21.643,21.643,21.643,0,0,1,21.643,0Z" transform="translate(1101.021 1653.821)" fill="#ef4c00"/>
    <g id="Icon_ionic-ios-options" data-name="Icon ionic-ios-options" transform="translate(1112.259 1666.552)">
      <path id="Path_712" data-name="Path 712" d="M16.1,25.965a2.028,2.028,0,0,1,3.717,0h3.813a.813.813,0,0,1,.81.81h0a.813.813,0,0,1-.81.81H19.816a2.028,2.028,0,0,1-3.717,0H4.185a.813.813,0,0,1-.81-.81h0a.813.813,0,0,1,.81-.81Z" transform="translate(-3.375 -10.977)" fill="#fff"/>
      <path id="Path_713" data-name="Path 713" d="M8,16.4a2.028,2.028,0,0,1,3.717,0H23.629a.813.813,0,0,1,.81.81h0a.813.813,0,0,1-.81.81H11.714a2.028,2.028,0,0,1-3.717,0H4.185a.813.813,0,0,1-.81-.81h0a.813.813,0,0,1,.81-.81Z" transform="translate(-3.375 -8.301)" fill="#fff"/>
      <path id="Path_714" data-name="Path 714" d="M16.1,6.84a2.028,2.028,0,0,1,3.717,0h3.813a.813.813,0,0,1,.81.81h0a.813.813,0,0,1-.81.81H19.816a2.028,2.028,0,0,1-3.717,0H4.185a.813.813,0,0,1-.81-.81h0a.813.813,0,0,1,.81-.81Z" transform="translate(-3.375 -5.625)" fill="#fff"/>
    </g>
  </g>
</svg>
