<svg xmlns="http://www.w3.org/2000/svg" width="37.483" height="32.409" viewBox="0 0 37.483 32.409">
  <g id="Group_842" data-name="Group 842" transform="translate(0.5 0.501)">
    <path id="Path_740" data-name="Path 740" d="M662.4,1043.889a11.1,11.1,0,1,0,0,15.7A11.1,11.1,0,0,0,662.4,1043.889Z" transform="translate(-638.846 -1036.039)" fill="none" stroke="#2e4765" stroke-linecap="round" stroke-linejoin="round" stroke-width="1"/>
    <path id="Path_741" data-name="Path 741" d="M671.378,1076.97a.539.539,0,0,0-.26,1.009,7.235,7.235,0,0,0,9.738-9.88.54.54,0,0,0-1.007.275" transform="translate(-658.214 -1055.262)" fill="none" stroke="#2e4765" stroke-linecap="round" stroke-linejoin="round" stroke-width="1"/>
    <path id="Path_742" data-name="Path 742" d="M661.848,1050.962a8.079,8.079,0,0,0-8.079,8.079" transform="translate(-646.145 -1043.338)" fill="none" stroke="#2e4765" stroke-linecap="round" stroke-linejoin="round" stroke-width="1"/>
    <path id="Path_743" data-name="Path 743" d="M654.553,1029.54q-.275-.276-.562-.536a15.7,15.7,0,1,0-1.357,24.376" transform="translate(-627.747 -1024.941)" fill="none" stroke="#2e4765" stroke-linecap="round" stroke-linejoin="round" stroke-width="1"/>
    <g id="Group_841" data-name="Group 841" transform="translate(28.897 3.083)">
      <path id="Path_744" data-name="Path 744" d="M729.033,1047.435a3.12,3.12,0,0,0-1.015-2.286,5.733,5.733,0,0,1-1.64-4.185c0-2.779,1.7-5.5,3.794-5.5s3.793,2.721,3.793,5.5a5.743,5.743,0,0,1-1.643,4.184,3.113,3.113,0,0,0-1.011,2.282v13.388a1.139,1.139,0,0,1-1.138,1.139h0a1.138,1.138,0,0,1-1.139-1.139Z" transform="translate(-726.378 -1035.464)" fill="none" stroke="#2e4765" stroke-linecap="round" stroke-miterlimit="10" stroke-width="1"/>
      <path id="Path_745" data-name="Path 745" d="M739.326,1041.473c.931,0,2.112,1.76,2.112,3.739" transform="translate(-735.533 -1039.713)" fill="none" stroke="#2e4765" stroke-linecap="round" stroke-miterlimit="10" stroke-width="1"/>
    </g>
  </g>
</svg>
