<svg xmlns="http://www.w3.org/2000/svg" width="37.912" height="32.525" viewBox="0 0 37.912 32.525">
  <g id="Group_840" data-name="Group 840" transform="translate(0.5 0.63)">
    <path id="Path_732" data-name="Path 732" d="M478.09,1078.533c1.76,0,1.76,3.449,3.52,3.449s1.76-3.449,3.519-3.449,1.759,3.449,3.518,3.449l-.986,3.82a1.385,1.385,0,0,1-1.34,1.038H469.854a1.383,1.383,0,0,1-1.34-1.038l-.986-3.82c1.759,0,1.759-3.449,3.518-3.449s1.759,3.449,3.519,3.449,1.76-3.449,3.52-3.449Z" transform="translate(-459.738 -1061.332)" fill="none" stroke="#2e4765" stroke-miterlimit="10" stroke-width="1"/>
    <path id="Path_733" data-name="Path 733" d="M485.261,1057.207a1.262,1.262,0,0,0,1.02-.477,1.521,1.521,0,0,0,.326-1,12.031,12.031,0,0,0-11.9-11.831h0a12.031,12.031,0,0,0-11.9,11.831,1.521,1.521,0,0,0,.326,1,1.263,1.263,0,0,0,1.02.477" transform="translate(-456.354 -1036.557)" fill="none" stroke="#2e4765" stroke-miterlimit="10" stroke-width="1"/>
    <path id="Path_734" data-name="Path 734" d="M487.234,1043.9a8.494,8.494,0,0,0-6.919,7.475" transform="translate(-468.884 -1036.557)" fill="none" stroke="#2e4765" stroke-linecap="round" stroke-miterlimit="10" stroke-width="1"/>
    <line id="Line_8" data-name="Line 8" y2="5.807" transform="translate(18.347 7.34)" fill="none" stroke="#2e4765" stroke-linecap="round" stroke-miterlimit="10" stroke-width="1"/>
    <path id="Path_735" data-name="Path 735" d="M504.609,1043.9a8.495,8.495,0,0,1,6.92,7.475" transform="translate(-486.262 -1036.557)" fill="none" stroke="#2e4765" stroke-linecap="round" stroke-miterlimit="10" stroke-width="1"/>
    <path id="Path_736" data-name="Path 736" d="M501.479,1031.426a2.07,2.07,0,1,0-2.07,2.07A2.069,2.069,0,0,0,501.479,1031.426Z" transform="translate(-481.062 -1026.156)" fill="none" stroke="#2e4765" stroke-linecap="round" stroke-miterlimit="10" stroke-width="1"/>
    <path id="Path_737" data-name="Path 737" d="M504.621,1021.315s-.263-2.557,1.726-3.2" transform="translate(-486.262 -1018.115)" fill="none" stroke="#2e4765" stroke-linecap="round" stroke-miterlimit="10" stroke-width="1"/>
    <path id="Path_738" data-name="Path 738" d="M484.761,1124.449a80.257,80.257,0,0,1-26.753,0" transform="translate(-452.928 -1094.176)" fill="none" stroke="#2e4765" stroke-linecap="round" stroke-miterlimit="10" stroke-width="1"/>
    <path id="Path_739" data-name="Path 739" d="M468.58,1097.36c5.111.661,8.5,1.819,8.5,3.135,0,2.056-8.263,3.722-18.456,3.722s-18.456-1.666-18.456-3.722c0-1.3,3.3-2.442,8.291-3.108" transform="translate(-440.164 -1074.799)" fill="none" stroke="#2e4765" stroke-linecap="round" stroke-miterlimit="10" stroke-width="1"/>
  </g>
</svg>
