<svg xmlns="http://www.w3.org/2000/svg" width="32.701" height="27.354" viewBox="0 0 32.701 27.354">
  <g id="Group_839" data-name="Group 839" transform="translate(0.5 0.5)">
    <path id="Path_727" data-name="Path 727" d="M106.3,651.147c0-2.776-5.343-5.027-11.933-5.027s-11.933,2.251-11.933,5.027,5.343,5.027,11.933,5.027S106.3,653.924,106.3,651.147Z" transform="translate(-78.52 -646.12)" fill="none" stroke="#2e4765" stroke-linecap="round" stroke-linejoin="round" stroke-width="1"/>
    <path id="Path_728" data-name="Path 728" d="M82.973,686.917a2.5,2.5,0,0,0-.536,1.495c0,2.777,5.343,5.027,11.933,5.027s11.933-2.25,11.933-5.027a2.494,2.494,0,0,0-.526-1.48" transform="translate(-78.52 -676.681)" fill="none" stroke="#2e4765" stroke-linecap="round" stroke-linejoin="round" stroke-width="1"/>
    <path id="Path_729" data-name="Path 729" d="M103.386,722.611a2.742,2.742,0,0,1,.578,1.626c0,3.051-5.87,5.524-13.112,5.524s-13.112-2.473-13.112-5.524a2.752,2.752,0,0,1,.59-1.643" transform="translate(-75.001 -703.408)" fill="none" stroke="#2e4765" stroke-linecap="round" stroke-linejoin="round" stroke-width="1"/>
    <path id="Path_730" data-name="Path 730" d="M94.181,671.867l4.345,3.188s-10.468.209-15.85,7.11c-5.382-6.9-15.85-7.11-15.85-7.11l4.345-3.188" transform="translate(-66.825 -665.407)" fill="none" stroke="#2e4765" stroke-linecap="round" stroke-linejoin="round" stroke-width="1"/>
    <path id="Path_731" data-name="Path 731" d="M101.908,701.628c-.409,1.173-1.538.969-2.572,1.079a1.5,1.5,0,0,0-.96.471c-.831.928-1.35,2.767-2.39,3.047-1.279.342-3.032-1.709-4.337-1.535s-2.472,2.6-3.789,2.6-2.481-2.434-3.789-2.6-3.058,1.877-4.337,1.535c-1.04-.28-1.558-2.118-2.389-3.047a1.5,1.5,0,0,0-.96-.471c-1.034-.109-2.163.094-2.572-1.079-.368-1.055.863-2.941,2.555-3.353,1.4,2.118,6.016,3.674,11.494,3.674s10.094-1.556,11.494-3.674C101.045,698.687,102.276,700.573,101.908,701.628Z" transform="translate(-72.009 -685.19)" fill="none" stroke="#2e4765" stroke-linejoin="round" stroke-width="1"/>
    <g id="Group_839-2" data-name="Group 839" transform="translate(11.167 3.638)">
      <line id="Line_3" data-name="Line 3" x1="0.914" transform="translate(0 0)" fill="none" stroke="#2e4765" stroke-miterlimit="10" stroke-width="1"/>
      <line id="Line_4" data-name="Line 4" x2="0.914" transform="translate(2.113 2.78)" fill="none" stroke="#2e4765" stroke-miterlimit="10" stroke-width="1"/>
      <line id="Line_5" data-name="Line 5" x1="0.914" transform="translate(4.227 0)" fill="none" stroke="#2e4765" stroke-miterlimit="10" stroke-width="1"/>
      <line id="Line_6" data-name="Line 6" x2="0.914" transform="translate(6.34 2.78)" fill="none" stroke="#2e4765" stroke-miterlimit="10" stroke-width="1"/>
      <line id="Line_7" data-name="Line 7" x1="0.914" transform="translate(8.453 0)" fill="none" stroke="#2e4765" stroke-miterlimit="10" stroke-width="1"/>
    </g>
  </g>
</svg>
