<svg id="Group_855" data-name="Group 855" xmlns="http://www.w3.org/2000/svg" width="99.367" height="16.92" viewBox="0 0 99.367 16.92">
  <path id="Icon_awesome-star" data-name="Icon awesome-star" d="M9.332.588,7.174,4.962l-4.827.7a1.058,1.058,0,0,0-.585,1.8l3.493,3.4-.826,4.808a1.057,1.057,0,0,0,1.533,1.114l4.319-2.27,4.319,2.27a1.058,1.058,0,0,0,1.533-1.114l-.826-4.808L18.8,7.47a1.058,1.058,0,0,0-.585-1.8l-4.827-.7L11.228.588a1.058,1.058,0,0,0-1.9,0Z" transform="translate(-1.441 0.001)" fill="#ef4c00"/>
  <path id="Icon_awesome-star-2" data-name="Icon awesome-star" d="M9.332.588,7.174,4.962l-4.827.7a1.058,1.058,0,0,0-.585,1.8l3.493,3.4-.826,4.808a1.057,1.057,0,0,0,1.533,1.114l4.319-2.27,4.319,2.27a1.058,1.058,0,0,0,1.533-1.114l-.826-4.808L18.8,7.47a1.058,1.058,0,0,0-.585-1.8l-4.827-.7L11.228.588a1.058,1.058,0,0,0-1.9,0Z" transform="translate(18.981 0.001)" fill="#ef4c00"/>
  <path id="Icon_awesome-star-3" data-name="Icon awesome-star" d="M9.332.588,7.174,4.962l-4.827.7a1.058,1.058,0,0,0-.585,1.8l3.493,3.4-.826,4.808a1.057,1.057,0,0,0,1.533,1.114l4.319-2.27,4.319,2.27a1.058,1.058,0,0,0,1.533-1.114l-.826-4.808L18.8,7.47a1.058,1.058,0,0,0-.585-1.8l-4.827-.7L11.228.588a1.058,1.058,0,0,0-1.9,0Z" transform="translate(39.403 0.001)" fill="#ef4c00"/>
  <path id="Icon_awesome-star-4" data-name="Icon awesome-star" d="M9.332.588,7.174,4.962l-4.827.7a1.058,1.058,0,0,0-.585,1.8l3.493,3.4-.826,4.808a1.057,1.057,0,0,0,1.533,1.114l4.319-2.27,4.319,2.27a1.058,1.058,0,0,0,1.533-1.114l-.826-4.808L18.8,7.47a1.058,1.058,0,0,0-.585-1.8l-4.827-.7L11.228.588a1.058,1.058,0,0,0-1.9,0Z" transform="translate(59.826 0.001)" fill="#ef4c00"/>
  <path id="Icon_awesome-star-5" data-name="Icon awesome-star" d="M9.332.588,7.174,4.962l-4.827.7a1.058,1.058,0,0,0-.585,1.8l3.493,3.4-.826,4.808a1.057,1.057,0,0,0,1.533,1.114l4.319-2.27,4.319,2.27a1.058,1.058,0,0,0,1.533-1.114l-.826-4.808L18.8,7.47a1.058,1.058,0,0,0-.585-1.8l-4.827-.7L11.228.588a1.058,1.058,0,0,0-1.9,0Z" transform="translate(80.248 0.001)" fill="#b30733" opacity="0.2"/>
</svg>
