<svg xmlns="http://www.w3.org/2000/svg" width="19.999" height="16" viewBox="0 0 19.999 16">
  <path id="Color_Overlay" data-name="Color Overlay" d="M1490,32.182a8.77,8.77,0,0,0,.977.056,8.32,8.32,0,0,0,5.1-1.727,4.1,4.1,0,0,1-3.832-2.806,4.048,4.048,0,0,0,.772.075,4.233,4.233,0,0,0,1.082-.141,4.061,4.061,0,0,1-3.292-3.963v-.05a4.157,4.157,0,0,0,1.859.508,4.025,4.025,0,0,1-1.824-3.363,3.962,3.962,0,0,1,.555-2.03,11.713,11.713,0,0,0,8.456,4.222,3.99,3.99,0,0,1-.106-.921,4.073,4.073,0,0,1,4.1-4.04,4.124,4.124,0,0,1,2.994,1.276,8.32,8.32,0,0,0,2.606-.981,4.067,4.067,0,0,1-1.8,2.235,8.287,8.287,0,0,0,2.354-.636,8.12,8.12,0,0,1-2.052,2.087l.014.523A11.5,11.5,0,0,1,1496.289,34,11.722,11.722,0,0,1,1490,32.182Z" transform="translate(-1490 -18)" fill="#ffad26"/>
</svg>
